<?xml version="1.0" encoding="UTF-8" standalone="no"?>
<svg
   xmlns:dc="http://purl.org/dc/elements/1.1/"
   xmlns:cc="http://creativecommons.org/ns#"
   xmlns:rdf="http://www.w3.org/1999/02/22-rdf-syntax-ns#"
   xmlns:svg="http://www.w3.org/2000/svg"
   xmlns="http://www.w3.org/2000/svg"
   id="svg44"
   viewBox="0 0 7999.8858 2768.8399"
   style="clip-rule:evenodd;fill-rule:evenodd;image-rendering:optimizeQuality;shape-rendering:geometricPrecision;text-rendering:geometricPrecision"
   version="1.1"
   height="104.64907"
   width="302.36221"
   xml:space="preserve"><metadata
     id="metadata48"><rdf:RDF><cc:Work
         rdf:about=""><dc:format>image/svg+xml</dc:format><dc:type
           rdf:resource="http://purl.org/dc/dcmitype/StillImage" /><dc:title></dc:title></cc:Work></rdf:RDF></metadata><defs
     id="defs4"><style
       id="style2"
       type="text/css"><![CDATA[
    .str0 {stroke:#FDF100;stroke-width:7.62}
    .fil7 {fill:#ED3237}
    .fil3 {fill:#038E45}
    .fil2 {fill:#039046}
    .fil4 {fill:#0D6235}
    .fil5 {fill:#1C4585}
    .fil1 {fill:#FAED21}
    .fil6 {fill:#FDF100}
    .fil0 {fill:#FDFEFD}
    .fil9 {fill:#1D4384;fill-rule:nonzero}
    .fil8 {fill:#1D4384;fill-rule:nonzero}
   ]]></style></defs><g
     transform="matrix(0.41632378,0,0,0.41632378,-278.40847,-3055.465)"
     id="Layer_x0020_1"><metadata
       id="CorelCorpID_0Corel-Layer" /><g
       id="_1133791488"><path
         style="fill:#fdfefd"
         id="path7"
         d="m 2853,10101 -142,696 c 27,3 460,-713 539,-791 l 463,825 c -538,61 -469,-15 -1058,185 l -26,149 57,-11 c 693,-287 1977,-233 2733,-327 31,-65 93,-505 114,-622 39,-217 80,-430 115,-646 -245,23 -501,71 -750,101 -397,48 -1534,130 -1820,261 -141,65 -138,87 -225,180 z"
         class="fil0" /><path
         style="fill:#faed21"
         id="path9"
         d="m 2853,10101 c 87,-93 84,-115 225,-180 286,-131 1423,-213 1820,-261 249,-30 505,-78 750,-101 37,-119 109,-588 185,-854 l -953,126 c -330,38 -664,67 -994,106 -992,117 -840,233 -1033,1164 z"
         class="fil1" /><path
         style="fill:#039046"
         id="path11"
         d="m 924,11834 -135,790 c 740,-218 1483,-292 2261,-327 176,-8 691,27 777,-83 24,-90 -74,-96 -163,-102 -296,-18 -907,-52 -1141,-189 -81,-48 -84,-84 -64,-186 14,-73 33,-157 39,-230 -338,25 -1144,58 -1436,220 -35,19 -40,22 -68,49 -14,12 -21,21 -34,32 -31,26 -5,8 -36,26 z"
         class="fil2" /><path
         style="fill:#038e45"
         id="path13"
         d="m 2629,11165 -117,566 c 358,-205 839,-231 1310,-253 503,-24 1003,-39 1505,-67 l 92,-584 c -756,94 -2040,40 -2733,327 z"
         class="fil3" /><path
         style="fill:#fdfefd"
         id="path15"
         d="m 1114,10854 -190,980 c 31,-18 5,0 36,-26 13,-11 20,-20 34,-32 28,-27 33,-30 68,-49 292,-162 1098,-195 1436,-220 l 200,-1003 c -325,22 -983,71 -1289,169 -188,60 -182,85 -295,181 z"
         class="fil0" /><path
         style="fill:#faed21"
         id="path17"
         d="m 1114,10854 c 113,-96 107,-121 295,-181 306,-98 964,-147 1289,-169 l 179,-885 c -381,-2 -994,52 -1340,147 -84,24 -213,50 -243,126 z"
         class="fil1" /><path
         style="fill:#0d6235"
         id="path19"
         d="m 2579,11847 c 284,214 1155,84 1301,250 l 47,65 c 27,-118 89,-375 -32,-433 -195,-94 -746,-107 -964,-83 -157,17 -352,30 -352,201 z"
         class="fil4" /><path
         style="fill:#1c4585"
         id="path21"
         d="m 3156,10605 c -769,118 947,-146 0,0 z m -445,192 c -28,36 -50,163 -56,219 589,-200 520,-124 1058,-185 l -463,-825 c -79,78 -512,794 -539,791 z"
         class="fil5" /><path
         style="fill:#fdf100;stroke:#fdf100;stroke-width:7.61999989"
         id="path23"
         d="m 2905,10591 96,-8 12,-112 76,45 69,-154 100,130 56,-52 48,90 82,-19 c -8,30 -22,62 -30,93 -157,-27 -307,-6 -449,69 -20,-27 -40,-55 -60,-82 z"
         class="fil6 str0" /><path
         style="fill:#ed3237"
         id="path25"
         d="m 2956,10599 c 10,-2 18,5 20,14 1,9 -6,18 -15,19 -10,2 -19,-5 -20,-14 -1,-9 5,-18 15,-19 z"
         class="fil7" /><path
         style="fill:#ed3237"
         id="path27"
         d="m 3030,10517 c 9,-1 18,5 19,14 2,9 -5,18 -15,19 -9,2 -18,-4 -19,-14 -1,-9 5,-17 15,-19 z"
         class="fil7" /><path
         style="fill:#ed3237"
         id="path29"
         d="m 3163,10433 c 15,-3 29,7 31,21 2,15 -9,28 -24,30 -14,3 -28,-7 -30,-22 -2,-14 9,-27 23,-29 z"
         class="fil7" /><path
         style="fill:#ed3237"
         id="path31"
         d="m 3305,10477 c 10,-1 19,5 20,14 1,10 -6,18 -15,20 -10,1 -18,-5 -20,-15 -1,-9 6,-17 15,-19 z"
         class="fil7" /><path
         style="fill:#ed3237"
         id="path33"
         d="m 3395,10531 c 10,-1 18,5 20,14 1,9 -6,18 -15,19 -10,2 -19,-5 -20,-14 -1,-9 5,-18 15,-19 z"
         class="fil7" /><path
         style="fill:#fdf100"
         id="path35"
         d="m 3386,10681 v 1 c 3,16 -75,40 -174,54 -98,14 -179,13 -184,-2 v 0 c -16,-19 -30,-35 -46,-53 134,-60 271,-86 417,-62 -7,21 -12,39 -13,62 z"
         class="fil6" /></g><g
       id="_1133790848"><path
         style="fill:#1d4384;fill-rule:nonzero"
         id="path38"
         d="m 8895,9723 h -152 v 236 h -157 v -718 h 242 c 62,0 116,3 162,9 46,6 84,17 114,34 30,16 53,40 68,69 15,30 22,68 22,116 0,50 -9,91 -28,123 -19,33 -43,59 -72,78 -29,20 -61,33 -97,41 -35,8 -69,12 -102,12 z m -24,-372 h -128 v 249 h 131 c 58,0 100,-10 124,-29 25,-20 38,-53 38,-101 0,-22 -3,-40 -8,-55 -6,-15 -15,-27 -27,-37 -13,-9 -30,-16 -51,-21 -21,-4 -47,-6 -79,-6 z m 1097,608 h -162 l -177,-267 h -159 v 267 h -156 v -718 h 312 c 196,0 294,69 294,207 0,51 -12,93 -38,125 -25,32 -61,60 -107,84 z m -377,-608 h -121 v 218 h 115 c 66,0 111,-9 135,-28 25,-19 37,-47 37,-84 0,-36 -12,-63 -36,-80 -23,-18 -67,-26 -130,-26 z m 1046,608 h -559 v -718 h 546 v 127 h -386 v 153 h 300 v 127 h -300 v 184 h 399 z m 660,-591 h -370 v 153 h 286 v 127 h -286 v 311 h -156 v -718 h 526 z m 673,591 h -558 v -718 h 546 v 127 h -387 v 153 h 301 v 127 h -301 v 184 h 399 z m 291,0 h -156 v -718 h 156 z m 752,-591 h -242 v 591 h -156 v -591 h -242 v -127 h 640 z m 102,283 v -410 h 156 v 367 c 0,38 4,72 10,102 7,30 17,55 32,75 15,21 36,37 61,47 25,11 57,16 95,16 37,0 69,-5 95,-16 25,-10 46,-26 61,-47 15,-20 25,-45 32,-75 6,-30 10,-64 10,-102 v -367 h 156 v 410 c 0,101 -30,179 -89,237 -60,57 -148,85 -265,85 -117,0 -205,-28 -265,-85 -59,-58 -89,-136 -89,-237 z m 1540,308 h -162 l -177,-267 h -159 v 267 h -156 v -718 h 312 c 197,0 295,69 295,207 0,51 -13,93 -38,125 -25,32 -61,60 -108,84 z m -377,-608 h -121 v 218 h 115 c 66,0 111,-9 135,-28 25,-19 37,-47 37,-84 0,-36 -12,-63 -35,-80 -24,-18 -67,-26 -131,-26 z m 1152,608 h -162 l -73,-174 h -285 l -73,174 h -162 l 304,-718 h 147 z m -289,-301 -89,-210 -88,210 z m 981,301 h -320 v -718 h 320 c 62,0 119,8 170,25 52,17 96,41 133,72 37,31 66,69 87,113 21,44 31,94 31,149 0,55 -10,105 -31,150 -21,44 -50,82 -87,112 -37,31 -81,55 -133,72 -51,16 -108,25 -170,25 z m 0,-593 h -164 v 468 h 164 c 81,0 143,-21 186,-62 43,-41 64,-98 64,-172 0,-74 -21,-132 -64,-173 -43,-40 -105,-61 -186,-61 z m 1118,593 h -559 v -718 h 547 v 127 h -387 v 153 h 300 v 127 h -300 v 184 h 399 z"
         class="fil8" /><path
         style="fill:#1d4384;fill-rule:nonzero"
         id="path40"
         d="m 6496,12088 h -434 v -1887 h 434 z m 1514,-1887 h 447 l 110,1887 h -433 l -47,-770 -261,770 h -434 l -277,-801 -52,801 h -436 l 120,-1887 h 447 l 413,1181 z m 1900,796 c 0,108 -20,209 -60,304 -41,95 -96,179 -167,251 -71,71 -154,128 -248,170 -94,42 -195,64 -303,66 v 300 h -434 v -1884 h 434 c 108,2 209,24 303,67 94,42 177,100 248,172 71,72 126,155 167,250 40,95 60,196 60,304 z m -778,357 c 48,-2 93,-12 135,-32 42,-20 78,-46 109,-78 31,-31 55,-69 73,-112 18,-42 27,-88 27,-136 0,-48 -9,-94 -27,-137 -18,-43 -42,-80 -73,-112 -31,-31 -67,-57 -109,-77 -42,-20 -87,-31 -135,-32 z m 2215,-716 h -775 v 285 h 629 v 433 h -629 v 298 h 775 v 434 h -1209 v -1881 l 1209,-3 z m 794,962 c -23,4 -45,6 -67,8 -22,2 -46,3 -70,5 v 475 h -433 v -1876 h 433 c 108,1 209,21 303,59 94,37 177,88 248,151 71,63 127,137 167,220 40,84 60,174 60,270 0,100 -21,194 -64,280 -43,87 -103,161 -180,224 l 416,672 h -511 z m -137,-423 c 47,-2 91,-10 133,-25 42,-14 78,-33 110,-57 32,-24 57,-52 74,-84 18,-31 27,-65 27,-101 0,-36 -9,-69 -27,-100 -17,-31 -42,-58 -74,-82 -32,-24 -68,-44 -110,-58 -42,-15 -86,-23 -133,-25 z m 2218,911 -74,-228 h -593 l -77,228 h -460 l 642,-1884 h 411 l 608,1884 z m -518,-662 h 305 l -149,-457 z m 2184,-1230 v 434 h -362 v 1458 h -434 v -1458 h -359 v -434 z m 755,1404 c -22,4 -45,6 -67,8 -22,2 -45,3 -69,5 v 475 h -434 v -1876 h 434 c 108,1 209,21 303,59 94,37 176,88 247,151 71,63 127,137 167,220 40,84 61,174 61,270 0,100 -22,194 -65,280 -42,87 -102,161 -179,224 l 416,672 h -511 z m -136,-423 c 46,-2 90,-10 132,-25 42,-14 79,-33 110,-57 32,-24 57,-52 75,-84 18,-31 27,-65 27,-101 0,-36 -9,-69 -27,-100 -18,-31 -43,-58 -75,-82 -31,-24 -68,-44 -110,-58 -42,-15 -86,-23 -132,-25 z m 1573,911 h -434 v -1887 h 434 z m 1674,0 h -1504 l 788,-1466 h -686 v -433 l 1412,2 -788,1463 h 778 z"
         class="fil9" /></g></g></svg>